# xmcd
#
# Track frame offsets:
#	150
#	14070
#	27031
#	39973
#	54042
#	66747
#	79835
#	94383
#	108415
#	122746
#	136989
#	149935
#	161945
#	176443
#	189380
#	201512
#	214179
#	227635
#	242038
#	258537
#	268531
#
# Disc length: 3799 seconds
#
# Revision: 1
# Processed by: cddbd v1.5.2PL0 Copyright (c) Steve Scherf et al.
# Submitted via: audiograbber 1.83.01
#
DISCID=3e0ed515
DTITLE=Folk Blues - Everyday I Have The Blues
DYEAR=2007
DGENRE=Blues
TTITLE0=Big Bill - Bad Luck Blues
TTITLE1=Leadbelly - Fannin Street
TTITLE2=Big Joe Williams - Crawling King Snake
TTITLE3=Sonny Boy Williamson - Mattie Mae Blues
TTITLE4=Big Joe Williams - Please Don't Go
TTITLE5=Big Boy Crudup - That's All Right
TTITLE6= Santa Fe Blues
TTITLE7=Lightnin' Hopkins - Tell Me
TTITLE8=John Lee Hooker - Boogie Chillen
TTITLE9=Memphis Slim - Blue And Lonesome
TTITLE10=Professor Longhair - Mardi Gras In New Orleans
TTITLE11=John Lee Hooker - Love My Baby
TTITLE12=Ray Charles - Losing Hand
TTITLE13=Muddy Waters - I'm Your Hoochie Coochie Man
TTITLE14=Memphis Slim - Wish Me Well
TTITLE15=B.B. King - Everyday I Have The Blues
TTITLE16=Howlin' Wolf - Forty Four
TTITLE17=Elmore James - Dust My Blues
TTITLE18=Josh White - St. James Infirmary
TTITLE19=John Lee Hooker - Dimples
TTITLE20=T-Bone Walker - T-Bone Blues
EXTD=by Columbia No1
EXTT0=
EXTT1=
EXTT2=
EXTT3=
EXTT4=
EXTT5=
EXTT6=
EXTT7=
EXTT8=
EXTT9=
EXTT10=
EXTT11=
EXTT12=
EXTT13=
EXTT14=
EXTT15=
EXTT16=
EXTT17=
EXTT18=
EXTT19=
EXTT20=
PLAYORDER=
